<svg width="183" height="80" viewBox="0 0 183 80" fill="none" xmlns="http://www.w3.org/2000/svg">
<g id="Logo-name">
<path d="M80 40C80 62.0914 62.0914 80 40 80C17.9086 80 0 62.0914 0 40C0 17.9086 17.9086 0 40 0C62.0914 0 80 17.9086 80 40Z" fill="#EBEBEB"/>
<path d="M54.7833 33.4328H50.5771C50.3283 32.223 49.893 31.1601 49.2711 30.2442C48.6605 29.3284 47.9143 28.5595 47.0323 27.9376C46.1617 27.3044 45.1949 26.8295 44.132 26.5129C43.0692 26.1963 41.9611 26.038 40.8077 26.038C38.7046 26.038 36.7994 26.5694 35.092 27.6323C33.3959 28.6952 32.0447 30.2612 31.0384 32.3304C30.0434 34.3996 29.5459 36.938 29.5459 39.9457C29.5459 42.9534 30.0434 45.4919 31.0384 47.5611C32.0447 49.6303 33.3959 51.1963 35.092 52.2592C36.7994 53.322 38.7046 53.8535 40.8077 53.8535C41.9611 53.8535 43.0692 53.6952 44.132 53.3786C45.1949 53.062 46.1617 52.5927 47.0323 51.9708C47.9143 51.3376 48.6605 50.5631 49.2711 49.6472C49.893 48.72 50.3283 47.6572 50.5771 46.4586H54.7833C54.4667 48.2338 53.8901 49.8225 53.0533 51.2246C52.2166 52.6266 51.1764 53.8195 49.9326 54.8033C48.6888 55.7757 47.2924 56.5163 45.7433 57.0251C44.2055 57.5339 42.5603 57.7883 40.8077 57.7883C37.8453 57.7883 35.2107 57.0647 32.9041 55.6174C30.5974 54.1701 28.7826 52.1122 27.4597 49.4437C26.1368 46.7752 25.4753 43.6092 25.4753 39.9457C25.4753 36.2822 26.1368 33.1162 27.4597 30.4478C28.7826 27.7793 30.5974 25.7214 32.9041 24.2741C35.2107 22.8268 37.8453 22.1031 40.8077 22.1031C42.5603 22.1031 44.2055 22.3575 45.7433 22.8663C47.2924 23.3752 48.6888 24.1214 49.9326 25.1052C51.1764 26.0776 52.2166 27.2648 53.0533 28.6669C53.8901 30.0577 54.4667 31.6463 54.7833 33.4328Z" fill="black"/>
<path d="M94.9148 57.5682C92.4527 57.5682 90.2924 56.9822 88.434 55.8104C86.5874 54.6385 85.1432 52.9991 84.1016 50.892C83.0717 48.785 82.5568 46.3229 82.5568 43.5057C82.5568 40.6648 83.0717 38.1849 84.1016 36.0661C85.1432 33.9472 86.5874 32.3018 88.434 31.13C90.2924 29.9581 92.4527 29.3722 94.9148 29.3722C97.3769 29.3722 99.5313 29.9581 101.378 31.13C103.236 32.3018 104.68 33.9472 105.71 36.0661C106.752 38.1849 107.273 40.6648 107.273 43.5057C107.273 46.3229 106.752 48.785 105.71 50.892C104.68 52.9991 103.236 54.6385 101.378 55.8104C99.5313 56.9822 97.3769 57.5682 94.9148 57.5682ZM94.9148 53.804C96.785 53.804 98.3239 53.3246 99.5312 52.3658C100.739 51.407 101.632 50.1463 102.212 48.5838C102.792 47.0213 103.082 45.3286 103.082 43.5057C103.082 41.6828 102.792 39.9841 102.212 38.4098C101.632 36.8355 100.739 35.563 99.5312 34.5923C98.3239 33.6217 96.785 33.1364 94.9148 33.1364C93.0445 33.1364 91.5057 33.6217 90.2983 34.5923C89.0909 35.563 88.1972 36.8355 87.6172 38.4098C87.0372 39.9841 86.7472 41.6828 86.7472 43.5057C86.7472 45.3286 87.0372 47.0213 87.6172 48.5838C88.1972 50.1463 89.0909 51.407 90.2983 52.3658C91.5057 53.3246 93.0445 53.804 94.9148 53.804Z" fill="black"/>
<path d="M134.994 29.7273L124.909 57H120.647L110.562 29.7273H115.107L122.636 51.4602H122.92L130.448 29.7273H134.994Z" fill="black"/>
<path d="M150.983 57.5682C148.355 57.5682 146.088 56.9882 144.182 55.8281C142.288 54.6562 140.827 53.0227 139.797 50.9276C138.779 48.8205 138.27 46.3703 138.27 43.5767C138.27 40.7831 138.779 38.321 139.797 36.1903C140.827 34.0478 142.259 32.3788 144.094 31.1832C145.94 29.9759 148.095 29.3722 150.557 29.3722C151.977 29.3722 153.38 29.6089 154.765 30.0824C156.15 30.5559 157.41 31.3253 158.547 32.3906C159.683 33.4441 160.589 34.8409 161.263 36.581C161.938 38.321 162.275 40.4635 162.275 43.0085V44.7841H141.253V41.1619H158.014C158.014 39.6231 157.706 38.25 157.091 37.0426C156.487 35.8352 155.623 34.8823 154.498 34.1839C153.386 33.4856 152.072 33.1364 150.557 33.1364C148.888 33.1364 147.443 33.5507 146.224 34.3793C145.017 35.196 144.088 36.2614 143.437 37.5753C142.786 38.8892 142.46 40.2978 142.46 41.8011V44.2159C142.46 46.2756 142.815 48.0215 143.525 49.4538C144.247 50.8743 145.248 51.9574 146.526 52.7031C147.805 53.437 149.29 53.804 150.983 53.804C152.084 53.804 153.078 53.6501 153.966 53.3423C154.865 53.0227 155.641 52.5492 156.292 51.9219C156.943 51.2827 157.446 50.4896 157.801 49.5426L161.849 50.679C161.423 52.0521 160.707 53.2595 159.701 54.3011C158.695 55.331 157.452 56.1359 155.972 56.7159C154.492 57.2841 152.829 57.5682 150.983 57.5682Z" fill="black"/>
<path d="M168.65 57V29.7273H172.698V33.8466H172.982C173.479 32.4972 174.379 31.4022 175.681 30.5618C176.983 29.7214 178.451 29.3011 180.084 29.3011C180.392 29.3011 180.777 29.3071 181.238 29.3189C181.7 29.3307 182.049 29.3485 182.286 29.3722V33.6335C182.144 33.598 181.818 33.5447 181.309 33.4737C180.812 33.3909 180.286 33.3494 179.729 33.3494C178.403 33.3494 177.22 33.6276 176.178 34.1839C175.148 34.7285 174.331 35.486 173.728 36.4567C173.136 37.4155 172.84 38.5104 172.84 39.7415V57H168.65Z" fill="black"/>
</g>
</svg>

