<svg width="134" height="134" viewBox="0 0 134 134" fill="none" xmlns="http://www.w3.org/2000/svg">
<g id="Logo">
<path d="M134 67C134 104.003 104.003 134 67 134C29.9969 134 0 104.003 0 67C0 29.9969 29.9969 0 67 0C104.003 0 134 29.9969 134 67Z" fill="#EBEBEB"/>
<path d="M91.7621 56H84.7166C84.3 53.9735 83.5708 52.1932 82.5291 50.6591C81.5064 49.125 80.2564 47.8371 78.7791 46.7955C77.3208 45.7348 75.7015 44.9394 73.9212 44.4091C72.1409 43.8788 70.2848 43.6136 68.353 43.6136C64.8303 43.6136 61.639 44.5038 58.7791 46.2841C55.9382 48.0644 53.675 50.6875 51.9893 54.1534C50.3227 57.6193 49.4893 61.8712 49.4893 66.9091C49.4893 71.947 50.3227 76.1989 51.9893 79.6648C53.675 83.1307 55.9382 85.7538 58.7791 87.5341C61.639 89.3144 64.8303 90.2045 68.353 90.2045C70.2848 90.2045 72.1409 89.9394 73.9212 89.4091C75.7015 88.8788 77.3208 88.0928 78.7791 87.0511C80.2564 85.9905 81.5064 84.6932 82.5291 83.1591C83.5708 81.6061 84.3 79.8258 84.7166 77.8182H91.7621C91.2318 80.7917 90.2659 83.4527 88.8643 85.8011C87.4628 88.1496 85.7204 90.1477 83.6371 91.7955C81.5537 93.4242 79.2147 94.6648 76.62 95.517C74.0443 96.3693 71.2886 96.7955 68.353 96.7955C63.3909 96.7955 58.978 95.5833 55.1143 93.1591C51.2507 90.7348 48.2109 87.2879 45.995 82.8182C43.7791 78.3485 42.6712 73.0455 42.6712 66.9091C42.6712 60.7727 43.7791 55.4697 45.995 51C48.2109 46.5303 51.2507 43.0833 55.1143 40.6591C58.978 38.2348 63.3909 37.0227 68.353 37.0227C71.2886 37.0227 74.0443 37.4489 76.62 38.3011C79.2147 39.1534 81.5537 40.4034 83.6371 42.0511C85.7204 43.6799 87.4628 45.6686 88.8643 48.017C90.2659 50.3466 91.2318 53.0076 91.7621 56Z" fill="black"/>
</g>
</svg>

